<svg viewBox="-466 -466 932 932" style="display: block; margin: 0px -14px; background: rgb(163, 245, 207); cursor: pointer;" xmlns="http://www.w3.org/2000/svg" xmlns:xlink="http://www.w3.org/1999/xlink"><g><circle fill="rgb(116, 215, 202)" transform="translate(-156.36396409033017,38.86005387333048)" r="302.253264246493"/><circle fill="rgb(116, 215, 202)" transform="translate(295.52254310244456,38.86005387333048)" r="147.0069374711229"/><circle fill="rgb(116, 215, 202)" transform="translate(187.91299120137265,283.0170533761896)" r="117.18590191890331"/><circle fill="rgb(116, 215, 202)" transform="translate(184.55701999125804,-193.00565158088187)" r="107.41743821429961"/><circle fill="rgb(116, 215, 202)" transform="translate(18.654867276259903,-336.6083870496892)" r="109.37656054329672"/><circle fill="rgb(116, 215, 202)" transform="translate(22.88579643370323,358.64974902729165)" r="61.72092915224042"/><circle fill="rgb(116, 215, 202)" transform="translate(359.46832676925345,-167.7821912890125)" r="66.67690645613578"/><circle fill="rgb(116, 215, 202)" transform="translate(-92.99901859470724,395.36774236333565)" r="57.215512087187136"/><circle fill="rgb(116, 215, 202)" transform="translate(-147.10701546641292,-320.4454428589063)" r="54.545152688792875"/><circle fill="rgb(116, 215, 202)" transform="translate(304.8309348504738,207.57137987903297)" r="19.33467613759993"/><circle fill="rgb(81, 183, 196)" transform="translate(-282.94198441919116,43.976164542702165)" r="172.94558753327567"/><circle fill="rgb(81, 183, 196)" transform="translate(17.9089114395589,43.976164542702165)" r="125.27900285031552"/><circle fill="rgb(81, 183, 196)" transform="translate(-96.5971720901639,211.44648138272828)" r="74.96891425545044"/><circle fill="rgb(81, 183, 196)" transform="translate(-97.65735939846178,-114.55496645880483)" r="68.2774698484105"/><circle fill="rgb(81, 183, 196)" transform="translate(-213.6064275731018,-187.53929884899688)" r="66.10315583324974"/><circle fill="white" pointer-events="none" transform="translate(-204.52074158289884,237.77648585375584)" r="33.49378056868907"/><circle fill="rgb(81, 183, 196)" transform="translate(5.887889687694006,-116.13198727239508)" r="32.65348228284154"/><circle fill="white" pointer-events="none" transform="translate(261.95193115937974,48.056284576208554)" r="38.651311570164175"/><circle fill="white" pointer-events="none" transform="translate(339.23909427599324,48.056284576208554)" r="36.00954607129044"/><circle fill="white" pointer-events="none" transform="translate(303.1457702413802,111.84162132267011)" r="34.65328287146479"/><circle fill="white" pointer-events="none" transform="translate(302.9587318005563,-9.240335131630875)" r="29.181309491844477"/><circle fill="rgb(81, 183, 196)" transform="translate(235.0720127663437,-26.87945388159896)" r="38.333279891171834"/><circle fill="white" pointer-events="none" transform="translate(238.56405986607786,112.52867676741153)" r="27.30577656047882"/><circle fill="rgb(81, 183, 196)" transform="translate(371.94933437894747,-21.54919151992751)" r="38.272419206199224"/><circle fill="white" pointer-events="none" transform="translate(366.2703605391059,106.81745261855404)" r="26.0446263853661"/><circle fill="rgb(81, 183, 196)" transform="translate(186.81143626535177,32.39570532522902)" r="35.47749819396026"/><circle fill="white" pointer-events="none" transform="translate(188.2149474732036,94.15005231586946)" r="23.666490291254664"/><circle fill="white" pointer-events="none" transform="translate(398.85848634705917,65.93877964074528)" r="23.607666514925302"/><circle fill="white" pointer-events="none" transform="translate(417.0850935174869,21.6995842935955)" r="21.612821151236872"/><circle fill="white" pointer-events="none" transform="translate(287.6257892078651,-59.86559468815595)" r="21.08866121304831"/><circle fill="white" pointer-events="none" transform="translate(330.416170915742,-65.28763075217319)" r="19.417564443008658"/><circle fill="white" pointer-events="none" transform="translate(265.95237900570964,145.00985007283725)" r="12.554935329569638"/><circle fill="white" pointer-events="none" transform="translate(342.8259493943308,137.62079521624386)" r="10.039355262097946"/><circle fill="white" pointer-events="none" transform="translate(287.0582534322477,153.84511668932456)" r="7.69931582078228"/><circle fill="white" pointer-events="none" transform="translate(327.46726136875037,146.54351725471338)" r="5.096779028802882"/><circle fill="white" pointer-events="none" transform="translate(398.21357089249864,96.9327537276701)" r="4.766710996658309"/><circle fill="rgb(81, 183, 196)" transform="translate(140.21635315645017,291.2926421085829)" r="56.72128349120081"/><circle fill="white" pointer-events="none" transform="translate(236.37173802685447,291.2926421085829)" r="36.80779590404458"/><circle fill="white" pointer-events="none" transform="translate(205.55706209245068,357.9115471040139)" r="33.966326110918"/><circle fill="white" pointer-events="none" transform="translate(203.6962774082326,235.7800305087661)" r="24.981236648872052"/><circle fill="white" pointer-events="none" transform="translate(160.9048442785343,214.49989656770165)" r="20.183156237084123"/><circle fill="white" pointer-events="none" transform="translate(150.344466866844,369.8960977288459)" r="19.90568808120041"/><circle fill="white" pointer-events="none" transform="translate(250.75293344737614,234.16399795698837)" r="19.47685485410477"/><circle fill="white" pointer-events="none" transform="translate(260.04352926561586,345.1259196745445)" r="19.373852793215793"/><circle fill="white" pointer-events="none" transform="translate(119.38713418333126,216.0377230401048)" r="18.736719361455712"/><circle fill="white" pointer-events="none" transform="translate(121.96845692948037,356.8480682853039)" r="8.700185559496546"/><circle fill="white" pointer-events="none" transform="translate(189.75111206645016,202.57951881488813)" r="8.40275658543528"/><circle fill="white" pointer-events="none" transform="translate(173.69230731396317,385.4430426276313)" r="5.518481470456303"/><circle fill="rgb(81, 183, 196)" transform="translate(151.30240970058074,-195.0385100797323)" r="48.34740927286483"/><circle fill="white" pointer-events="none" transform="translate(232.97633265694182,-195.0385100797323)" r="30.700208208337504"/><circle fill="white" pointer-events="none" transform="translate(205.2770974189773,-151.05384419044114)" r="18.653275332626805"/><circle fill="white" pointer-events="none" transform="translate(205.26647712610918,-238.9583795409628)" r="18.60412300652651"/><circle fill="white" pointer-events="none" transform="translate(173.0988640826373,-259.1683790784847)" r="16.759035981783708"/><circle fill="white" pointer-events="none" transform="translate(173.03583582429894,-130.9107713942983)" r="16.73676213688997"/><circle fill="white" pointer-events="none" transform="translate(242.44121481461275,-243.69833039571614)" r="16.245273730741918"/><circle fill="white" pointer-events="none" transform="translate(242.2387988153174,-146.6465030424343)" r="15.943960481392216"/><circle fill="white" pointer-events="none" transform="translate(137.9448233351113,-260.45460259809505)" r="15.792221730707565"/><circle fill="white" pointer-events="none" transform="translate(138.02958925442508,-129.737182069019)" r="15.662845806664741"/><circle fill="white" pointer-events="none" transform="translate(203.4418919482109,-274.96673077317956)" r="14.824120045984452"/><circle fill="white" pointer-events="none" transform="translate(202.81604316811487,-115.852366158907)" r="14.007822661870025"/><circle fill="white" pointer-events="none" transform="translate(233.0625901226974,-115.7996985931568)" r="13.612464671885082"/><circle fill="white" pointer-events="none" transform="translate(232.56367213755286,-272.6935713027091)" r="11.759937971537523"/><circle fill="white" pointer-events="none" transform="translate(265.8593563361346,-164.89789839888644)" r="11.280097023683538"/><circle fill="white" pointer-events="none" transform="translate(264.9899719217458,-224.92494578603464)" r="10.46928677960668"/><circle fill="white" pointer-events="none" transform="translate(114.39903765880776,-146.0017752802591)" r="10.397778861366131"/><circle fill="white" pointer-events="none" transform="translate(114.472315834714,-243.9660757329103)" r="10.266488508616487"/><circle fill="white" pointer-events="none" transform="translate(155.40513953621283,-108.59858492416332)" r="9.07414597650111"/><circle fill="white" pointer-events="none" transform="translate(155.54186176203305,-281.1296619695976)" r="8.731313335354299"/><circle fill="white" pointer-events="none" transform="translate(180.5302087892824,-103.92760567333985)" r="8.641518770595418"/><circle fill="white" pointer-events="none" transform="translate(180.12194675710558,-285.9957360666154)" r="8.346062640596744"/><circle fill="white" pointer-events="none" transform="translate(101.71685715119368,-162.90917932352488)" r="8.111147242758665"/><circle fill="white" pointer-events="none" transform="translate(101.97555019013471,-227.2789814981377)" r="7.954946075418573"/><circle fill="white" pointer-events="none" transform="translate(272.7131713673276,-205.53718809791104)" r="7.773834135282503"/><circle fill="white" pointer-events="none" transform="translate(272.67657555302435,-185.2546673242276)" r="7.561539156818659"/><circle fill="white" pointer-events="none" transform="translate(94.86960430356038,-210.58567781943304)" r="7.561539156818659"/><circle fill="white" pointer-events="none" transform="translate(95.05831648451175,-179.6991179726819)" r="7.324612602867707"/><circle fill="white" pointer-events="none" transform="translate(87.06366052388844,-194.96105761812282)" r="7.278165637302367"/><circle fill="rgb(81, 183, 196)" transform="translate(-25.858898223694588,-336.6083870496892)" r="62.2364895681834"/><circle fill="rgb(81, 183, 196)" transform="translate(82.20450958202277,-336.6083870496892)" r="43.200612762375066"/><circle fill="rgb(81, 183, 196)" transform="translate(42.24323961950913,-278.7009179911052)" r="24.530583635313725"/><circle fill="white" pointer-events="none" transform="translate(7.254625247273705,359.72928184996834)" r="19.89034913524075"/><circle fill="white" pointer-events="none" transform="translate(47.887776973745986,359.72928184996834)" r="18.116497116072694"/><circle fill="white" pointer-events="none" transform="translate(29.25820804043916,392.57013745695895)" r="17.014085994032435"/><circle fill="white" pointer-events="none" transform="translate(29.213531213585657,328.0966764618461)" r="15.990685921997581"/><circle fill="white" pointer-events="none" transform="translate(-3.8024365292680633,324.2778275416709)" r="14.619099424001826"/><circle fill="white" pointer-events="none" transform="translate(-3.2198363671789254,393.5105701202632)" r="12.851265646711933"/><circle fill="white" pointer-events="none" transform="translate(59.75680447025324,329.26842523643666)" r="11.948749824384757"/><circle fill="white" pointer-events="none" transform="translate(59.83356368914535,389.26101174156605)" r="11.11351374697836"/><circle fill="white" pointer-events="none" transform="translate(-22.325390549635607,375.30454639116556)" r="10.913364834310281"/><circle fill="white" pointer-events="none" transform="translate(-20.966877923887484,344.7204738917571)" r="9.447662331564471"/><circle fill="rgb(81, 183, 196)" transform="translate(342.30248295743525,-169.6180545735585)" r="46.786864775529374"/><circle fill="white" pointer-events="none" transform="translate(406.7465099120602,-169.6180545735585)" r="15.030856703936788"/><circle fill="white" pointer-events="none" transform="translate(398.4463060906139,-138.0224030907389)" r="15.010537098652065"/><circle fill="white" pointer-events="none" transform="translate(397.02087723722536,-197.75989318937715)" r="12.117844313004346"/><circle fill="white" pointer-events="none" transform="translate(379.8558872643277,-216.84259308229124)" r="10.922683206437148"/><circle fill="white" pointer-events="none" transform="translate(377.23948256709156,-125.02492911938297)" r="7.236108469318119"/><circle fill="white" pointer-events="none" transform="translate(360.73821642831126,-222.19726850032862)" r="6.304421278076102"/><circle fill="white" pointer-events="none" transform="translate(-119.83684334062625,397.42880404852065)" r="26.683924449673054"/><circle fill="white" pointer-events="none" transform="translate(-64.50543540585858,397.42880404852065)" r="26.02117800993577"/><circle fill="white" pointer-events="none" transform="translate(-91.65832680201946,430.10096978658146)" r="13.83486491029222"/><circle fill="white" pointer-events="none" transform="translate(-91.67729269303781,366.8606492905527)" r="12.251439651608028"/><circle fill="white" pointer-events="none" transform="translate(-115.52450891640213,357.67401382863164)" r="10.677762943199477"/><circle fill="white" pointer-events="none" transform="translate(-68.42854887022175,359.4643000573354)" r="9.519182370740737"/><circle fill="white" pointer-events="none" transform="translate(-116.176002159703,435.12833743487545)" r="8.566630764787398"/><circle fill="white" pointer-events="none" transform="translate(-70.54580094581408,430.17533642258377)" r="4.651486444647136"/><circle fill="white" pointer-events="none" transform="translate(-172.89673679817287,-320.4454428589063)" r="26.12912588187414"/><circle fill="white" pointer-events="none" transform="translate(-119.66473684695936,-320.4454428589063)" r="24.476568594180485"/><circle fill="white" pointer-events="none" transform="translate(-144.92704478727836,-285.92250203222443)" r="15.675831448641025"/><circle fill="white" pointer-events="none" transform="translate(-145.07721608796584,-348.6191185124615)" r="10.838529449854784"/><circle fill="white" pointer-events="none" transform="translate(304.8309348504738,207.57137987903297)" r="16.708370662441098"/><circle fill="rgb(66, 150, 183)" transform="translate(-342.1928407648743,52.597978499092406)" r="110.44441543116403"/><circle fill="rgb(66, 150, 183)" transform="translate(-182.47802527019738,52.597978499092406)" r="46.64409458835409"/><circle fill="rgb(66, 150, 183)" transform="translate(-211.176109476571,144.38600833365092)" r="46.899358478483535"/><circle fill="rgb(66, 150, 183)" transform="translate(-212.75609171269102,-34.503991970616944)" r="42.944102956360155"/><circle fill="rgb(66, 150, 183)" transform="translate(-279.95290040807737,-86.7571022457029)" r="39.55184854199326"/><circle fill="white" pointer-events="none" transform="translate(-275.84646027464413,166.6401237093107)" r="18.866586510127416"/><circle fill="white" pointer-events="none" transform="translate(-338.2216673270597,-77.26993852292775)" r="16.857898304809844"/><circle fill="white" pointer-events="none" transform="translate(-309.63809049734704,174.63197225165868)" r="13.230931482640177"/><circle fill="white" pointer-events="none" transform="translate(-161.56602555585425,-6.051336275487834)" r="12.995592706059835"/><circle fill="white" pointer-events="none" transform="translate(-160.7813185176728,109.59196274273744)" r="11.713707078183356"/><circle fill="white" pointer-events="none" transform="translate(-334.83420793433316,174.78667398509845)" r="9.339355401580118"/><circle fill="white" pointer-events="none" transform="translate(-8.146849765614519,38.479073801369644)" r="37.32836098612589"/><circle fill="white" pointer-events="none" transform="translate(68.4429156543426,38.479073801369644)" r="36.63509895867234"/><circle fill="white" pointer-events="none" transform="translate(30.83473789254128,103.96726259664032)" r="36.25732109996114"/><circle fill="white" pointer-events="none" transform="translate(30.75686195273209,-16.814731301672683)" r="27.653792094116795"/><circle fill="white" pointer-events="none" transform="translate(-25.315429709060513,-25.713212092044877)" r="26.493882849414028"/><circle fill="white" pointer-events="none" transform="translate(86.50408735297358,-24.18338569686088)" r="25.95201254070566"/><circle fill="rgb(66, 150, 183)" transform="translate(-43.75751819418643,105.25097071888635)" r="35.719674790510524"/><circle fill="white" pointer-events="none" transform="translate(91.13018153805267,95.40298664026369)" r="22.017008454951792"/><circle fill="white" pointer-events="none" transform="translate(-53.79006990701898,7.939780205372955)" r="14.96301737752259"/><circle fill="white" pointer-events="none" transform="translate(-120.76665634747982,213.68137520188728)" r="23.918776548353353"/><circle fill="white" pointer-events="none" transform="translate(-71.12950046564768,213.68137520188728)" r="23.09207385831994"/><circle fill="white" pointer-events="none" transform="translate(-95.19941452302896,251.15520699345385)" r="18.819793416111533"/><circle fill="white" pointer-events="none" transform="translate(-95.20935599110692,176.92548824766595)" r="18.22288450722671"/><circle fill="white" pointer-events="none" transform="translate(-133.41859609700415,171.19216639281964)" r="17.7878001819811"/><circle fill="white" pointer-events="none" transform="translate(-132.58632873434087,254.6607341227055)" r="16.104800894193037"/><circle fill="white" pointer-events="none" transform="translate(-60.52807874372131,175.54993185304045)" r="13.859355750687492"/><circle fill="white" pointer-events="none" transform="translate(-60.34948184129114,251.2893391882142)" r="13.404091916920729"/><circle fill="white" pointer-events="none" transform="translate(-38.84794088313529,194.0918217488682)" r="12.042045631926376"/><circle fill="white" pointer-events="none" transform="translate(-41.92293990467764,233.5036091619522)" r="9.579554585791366"/><circle fill="white" pointer-events="none" transform="translate(-147.89598981317016,233.73908673828245)" r="7.193805426578193"/><circle fill="white" pointer-events="none" transform="translate(-125.69507460575646,-114.55496645880483)" r="37.61344916595697"/><circle fill="white" pointer-events="none" transform="translate(-58.73075749492538,-114.55496645880483)" r="26.724562469715266"/><circle fill="white" pointer-events="none" transform="translate(-83.67837249043636,-74.67404312052007)" r="17.690300623502175"/><circle fill="white" pointer-events="none" transform="translate(-236.24173195948742,-187.53929884899688)" r="40.841545971705266"/><circle fill="white" pointer-events="none" transform="translate(-171.45172886381707,-187.53929884899688)" r="21.322151648806198"/><circle fill="white" pointer-events="none" transform="translate(-190.8602846554491,-160.42388301944624)" r="9.397274439854938"/><circle fill="white" pointer-events="none" transform="translate(-191.6879672875686,-210.49052743260677)" r="6.64997811445898"/><circle fill="white" pointer-events="none" transform="translate(-201.1457466204964,-223.20224714807654)" r="6.567876471269554"/><circle fill="white" pointer-events="none" transform="translate(-8.46743183060599,-118.3646407580371)" r="12.52518746038511"/><circle fill="white" pointer-events="none" transform="translate(17.976177414954698,-118.3646407580371)" r="11.29211631001674"/><circle fill="white" pointer-events="none" transform="translate(5.93300053532564,-96.84595864859836)" r="10.741095425854988"/><circle fill="white" pointer-events="none" transform="translate(5.838014192826868,-137.45502313040427)" r="8.704082619293095"/><circle fill="white" pointer-events="none" transform="translate(220.50435685680822,-30.130888399642394)" r="20.780875624843574"/><circle fill="white" pointer-events="none" transform="translate(256.3770167079061,-30.130888399642394)" r="12.465478751095503"/><circle fill="white" pointer-events="none" transform="translate(245.64210593836688,-5.455601667571804)" r="11.81747225808333"/><circle fill="white" pointer-events="none" transform="translate(245.01914901394744,-51.52470254612503)" r="9.130033258973954"/><circle fill="white" pointer-events="none" transform="translate(361.49130279005453,-21.54919151992751)" r="25.188082142147394"/><circle fill="white" pointer-events="none" transform="translate(398.45056925867425,-21.54919151992751)" r="9.14487885131358"/><circle fill="white" pointer-events="none" transform="translate(170.87187515902255,24.605077720753204)" r="15.109617627112863"/><circle fill="white" pointer-events="none" transform="translate(203.25933826916238,24.605077720753204)" r="14.651540007868176"/><circle fill="white" pointer-events="none" transform="translate(187.50865126141585,51.41642844107368)" r="13.8176954941618"/><circle fill="white" pointer-events="none" transform="translate(122.54881172705682,287.9939727716764)" r="24.355730207167486"/><circle fill="white" pointer-events="none" transform="translate(161.75180045426094,287.9939727716764)" r="12.220953044877715"/><circle fill="white" pointer-events="none" transform="translate(152.27143452988687,312.8795620366241)" r="11.782985397804483"/><circle fill="white" pointer-events="none" transform="translate(152.2669773970422,263.125492449741)" r="11.76858604573353"/><circle fill="white" pointer-events="none" transform="translate(129.77549303678308,250.09750803580974)" r="11.597323594742232"/><circle fill="white" pointer-events="none" transform="translate(130.24092854073814,324.84035054598786)" r="10.658689817623753"/><circle fill="white" pointer-events="none" transform="translate(176.77446812933078,267.56417601675594)" r="10.511312802554711"/><circle fill="white" pointer-events="none" transform="translate(175.87336783764215,308.050140112103)" r="9.681673657100145"/><circle fill="white" pointer-events="none" transform="translate(107.55452973078478,321.42448971920993)" r="9.657123095722207"/><circle fill="white" pointer-events="none" transform="translate(142.86038395577646,-194.0506664826077)" r="7.236108469318119"/><circle fill="white" pointer-events="none" transform="translate(159.8455399570983,-194.0506664826077)" r="7.1227420568448645"/><circle fill="white" pointer-events="none" transform="translate(151.46186587672835,-180.11877282682636)" r="6.510831062926511"/><circle fill="white" pointer-events="none" transform="translate(151.4616567841554,-207.94585911368125)" r="6.479503706852945"/><circle fill="white" pointer-events="none" transform="translate(135.9832062373765,-208.78209171754594)" r="6.395213890574253"/><circle fill="white" pointer-events="none" transform="translate(135.94929689283285,-179.33511897558498)" r="6.395213890574253"/><circle fill="white" pointer-events="none" transform="translate(166.93546104475146,-208.53707899123623)" r="6.379285562253035"/><circle fill="white" pointer-events="none" transform="translate(166.96375041656742,-179.58406058171676)" r="6.373967274073664"/><circle fill="white" pointer-events="none" transform="translate(126.81020268632818,-196.4310105088072)" r="6.363317363085559"/><circle fill="white" pointer-events="none" transform="translate(120.8615484125693,-182.2889160443697)" r="6.352649598059872"/><circle fill="white" pointer-events="none" transform="translate(175.82134254896778,-196.016989166839)" r="6.3473089921574095"/><circle fill="white" pointer-events="none" transform="translate(182.1064445803378,-182.05044224783742)" r="6.341963888900216"/><circle fill="white" pointer-events="none" transform="translate(144.35641183365567,-221.6505518717348)" r="6.331260144749895"/><circle fill="white" pointer-events="none" transform="translate(144.22448340969663,-167.2906761099044)" r="5.591738855263625"/><circle fill="white" pointer-events="none" transform="translate(158.86824938201875,-220.69541017290996)" r="5.585670770073815"/><circle fill="white" pointer-events="none" transform="translate(158.92846143111132,-167.9770330057864)" r="5.11670136805625"/><circle fill="white" pointer-events="none" transform="translate(152.4898298810795,-157.02444509552765)" r="4.961919688214014"/><circle fill="white" pointer-events="none" transform="translate(122.0796890008309,-209.49027848349118)" r="4.90002221709395"/><circle fill="white" pointer-events="none" transform="translate(180.70396432500527,-208.86053028477494)" r="4.766710996658309"/><circle fill="white" pointer-events="none" transform="translate(171.3220447910389,-166.56279900295786)" r="4.731004793553216"/><circle fill="white" pointer-events="none" transform="translate(131.35487709564126,-166.42627529933995)" r="4.680558517951448"/><circle fill="white" pointer-events="none" transform="translate(171.630562769305,-221.26763273263185)" r="4.5631590438029495"/><circle fill="white" pointer-events="none" transform="translate(130.83891629796568,-221.3550694280882)" r="4.5631590438029495"/><circle fill="white" pointer-events="none" transform="translate(119.79583498387538,-168.84883518771804)" r="4.503311744547235"/><circle fill="white" pointer-events="none" transform="translate(182.97816566164957,-168.62979091971093)" r="4.480662924964698"/><circle fill="white" pointer-events="none" transform="translate(152.98872754958202,-231.9098690498478)" r="4.4502851989419066"/><circle fill="white" pointer-events="none" transform="translate(119.24055083764986,-221.0861145642766)" r="4.41201892367674"/><circle fill="white" pointer-events="none" transform="translate(183.16665400191894,-220.37428358895062)" r="4.381165265959487"/><circle fill="white" pointer-events="none" transform="translate(113.74363581661203,-193.5950265936981)" r="4.381165265959487"/><circle fill="white" pointer-events="none" transform="translate(188.91431002811447,-193.50641315727984)" r="4.357881671893582"/><circle fill="white" pointer-events="none" transform="translate(191.5921423697485,-204.50374381629013)" r="4.334473006583632"/><circle fill="white" pointer-events="none" transform="translate(111.39364019501113,-204.58560746617974)" r="4.23153932810494"/><circle fill="white" pointer-events="none" transform="translate(-36.17800964266583,-337.20750297794797)" r="23.05974229375359"/><circle fill="white" pointer-events="none" transform="translate(9.536014861309388,-337.20750297794797)" r="20.02797673506279"/><circle fill="white" pointer-events="none" transform="translate(-10.41047757165317,-299.8263498992341)" r="19.71567372405421"/><circle fill="white" pointer-events="none" transform="translate(-10.69124966149017,-369.53768910914306)" r="15.482093670989572"/><circle fill="white" pointer-events="none" transform="translate(-43.04763412509713,-377.53404131138905)" r="15.221426297425522"/><circle fill="white" pointer-events="none" transform="translate(64.74391770151607,-344.6768541037643)" r="21.339639901989358"/><circle fill="white" pointer-events="none" transform="translate(105.05295690620218,-344.6768541037643)" r="16.343093827537892"/><circle fill="white" pointer-events="none" transform="translate(89.55263497816603,-313.241743103059)" r="16.07951199993039"/><circle fill="white" pointer-events="none" transform="translate(88.43943402910512,-364.76533058217444)" r="7.098896184570307"/><circle fill="white" pointer-events="none" transform="translate(42.24323961950913,-278.7009179911052)" r="21.904278160154888"/><circle fill="white" pointer-events="none" transform="translate(323.9234993132947,-169.6180545735585)" r="25.78157565622998"/><circle fill="white" pointer-events="none" transform="translate(369.39721135124466,-169.6180545735585)" r="17.065830906561136"/><circle fill="white" pointer-events="none" transform="translate(353.6218038452709,-141.81938787513593)" r="12.270800782901215"/><circle fill="white" pointer-events="none" transform="translate(353.0793289118788,-193.75176710715908)" r="9.440480527157838"/><circle fill="white" pointer-events="none" transform="translate(336.2967526989944,-202.7861956269921)" r="6.993008409513888"/><circle fill="white" pointer-events="none" transform="translate(-368.4690898052159,44.87546987575119)" r="29.54511546615306"/><circle fill="white" pointer-events="none" transform="translate(-307.3579219648627,44.87546987575119)" r="28.939746899041236"/><circle fill="white" pointer-events="none" transform="translate(-337.31516893864017,96.97548099821432)" r="28.532598236347567"/><circle fill="white" pointer-events="none" transform="translate(-337.3487937563638,-3.2485547045628325)" r="25.138216712182874"/><circle fill="white" pointer-events="none" transform="translate(-389.85640674202205,-8.109971326048623)" r="24.96765767485746"/><circle fill="white" pointer-events="none" transform="translate(-284.8369409547355,-6.874931224601279)" r="24.87239728297842"/><circle fill="white" pointer-events="none" transform="translate(-392.34146604167455,95.59431336223253)" r="23.884724411193602"/><circle fill="white" pointer-events="none" transform="translate(-283.12358996621595,93.89849632760085)" r="23.119960187691802"/><circle fill="white" pointer-events="none" transform="translate(-420.01621430063284,30.44640228473593)" r="21.35711383493715"/><circle fill="white" pointer-events="none" transform="translate(-259.5596314134177,31.152298223613226)" r="18.16323497072779"/><circle fill="white" pointer-events="none" transform="translate(-429.8744326862794,71.4027718394187)" r="18.14268514828997"/><circle fill="white" pointer-events="none" transform="translate(-251.39681871233606,66.92148085759023)" r="15.899230826748498"/><circle fill="white" pointer-events="none" transform="translate(-360.68350005267627,-38.69400828710919)" r="14.672356793181978"/><circle fill="white" pointer-events="none" transform="translate(-313.0719770326925,-36.74282807525306)" r="13.602495820550274"/><circle fill="white" pointer-events="none" transform="translate(-368.51087602065365,120.11459448817939)" r="7.681677044299409"/><circle fill="white" pointer-events="none" transform="translate(-199.95417804160596,48.15604905015152)" r="25.985965774470465"/><circle fill="white" pointer-events="none" transform="translate(-155.07994127801751,48.15604905015152)" r="16.261965513959165"/><circle fill="white" pointer-events="none" transform="translate(-169.17709443857453,78.68348841563022)" r="14.736932080085595"/><circle fill="white" pointer-events="none" transform="translate(-219.48637470979315,143.46251044501867)" r="16.752964233749715"/><circle fill="white" pointer-events="none" transform="translate(-183.5127859832124,143.46251044501867)" r="16.5943190176722"/><circle fill="white" pointer-events="none" transform="translate(-201.3497099451118,172.29585103656984)" r="14.683908922200283"/><circle fill="white" pointer-events="none" transform="translate(-201.36533459003792,118.9041858768883)" r="11.140943275528716"/><circle fill="white" pointer-events="none" transform="translate(-225.33228203181255,113.95035347293424)" r="10.70630892209988"/><circle fill="white" pointer-events="none" transform="translate(-231.3895386522445,-40.6586740820525)" r="20.694203092252586"/><circle fill="white" pointer-events="none" transform="translate(-190.67450684740965,-40.6586740820525)" r="17.39452323742347"/><circle fill="white" pointer-events="none" transform="translate(-208.0371208535921,-9.918665900194902)" r="15.283681879526933"/><circle fill="white" pointer-events="none" transform="translate(-296.56735238037896,-93.9663996963108)" r="18.81438672409205"/><circle fill="white" pointer-events="none" transform="translate(-259.6994249268093,-93.9663996963108)" r="15.427235254318795"/><circle fill="white" pointer-events="none" transform="translate(-274.97309546990806,-65.04690291339313)" r="14.651540007868176"/><circle fill="white" pointer-events="none" transform="translate(-57.41586593413272,105.25097071888635)" r="19.435021575405404"/><circle fill="white" pointer-events="none" transform="translate(-23.0093438812016,105.25097071888635)" r="12.34519500236686"/><circle fill="white" pointer-events="none" transform="translate(-34.97928961558973,123.53301611324234)" r="6.880565435917975"/><circle fill="white" pointer-events="none" transform="translate(-35.388828564431336,89.71550910441081)" r="4.893096387177179"/></g><g pointer-events="none" text-anchor="middle" style="font: 10px sans-serif;"><text transform="translate(1.1937117960769726e-12,-1.7053025658242465e-13)" style="fill-opacity: 0; display: none;">flare</text><text transform="translate(-156.36396409033017,38.86005387333048)" style="fill-opacity: 1; display: inline;">vis</text><text transform="translate(295.52254310244456,38.86005387333048)" style="fill-opacity: 1; display: inline;">util</text><text transform="translate(187.91299120137265,283.0170533761896)" style="fill-opacity: 1; display: inline;">animate</text><text transform="translate(184.55701999125804,-193.00565158088187)" style="fill-opacity: 1; display: inline;">query</text><text transform="translate(18.654867276259903,-336.6083870496892)" style="fill-opacity: 1; display: inline;">analytics</text><text transform="translate(22.88579643370323,358.64974902729165)" style="fill-opacity: 1; display: inline;">scale</text><text transform="translate(359.46832676925345,-167.7821912890125)" style="fill-opacity: 1; display: inline;">data</text><text transform="translate(-92.99901859470724,395.36774236333565)" style="fill-opacity: 1; display: inline;">physics</text><text transform="translate(-147.10701546641292,-320.4454428589063)" style="fill-opacity: 1; display: inline;">display</text><text transform="translate(304.8309348504738,207.57137987903297)" style="fill-opacity: 1; display: inline;">flex</text><text transform="translate(-282.94198441919116,43.976164542702165)" style="fill-opacity: 0; display: none;">operator</text><text transform="translate(17.9089114395589,43.976164542702165)" style="fill-opacity: 0; display: none;">data</text><text transform="translate(-96.5971720901639,211.44648138272828)" style="fill-opacity: 0; display: none;">controls</text><text transform="translate(-97.65735939846178,-114.55496645880483)" style="fill-opacity: 0; display: none;">legend</text><text transform="translate(-213.6064275731018,-187.53929884899688)" style="fill-opacity: 0; display: none;">axis</text><text transform="translate(-204.52074158289884,237.77648585375584)" style="fill-opacity: 0; display: none;">Visualization</text><text transform="translate(5.887889687694006,-116.13198727239508)" style="fill-opacity: 0; display: none;">events</text><text transform="translate(261.95193115937974,48.056284576208554)" style="fill-opacity: 0; display: none;">Strings</text><text transform="translate(339.23909427599324,48.056284576208554)" style="fill-opacity: 0; display: none;">Shapes</text><text transform="translate(303.1457702413802,111.84162132267011)" style="fill-opacity: 0; display: none;">Maths</text><text transform="translate(302.9587318005563,-9.240335131630875)" style="fill-opacity: 0; display: none;">Displays</text><text transform="translate(235.0720127663437,-26.87945388159896)" style="fill-opacity: 0; display: none;">palette</text><text transform="translate(238.56405986607786,112.52867676741153)" style="fill-opacity: 0; display: none;">Geometry</text><text transform="translate(371.94933437894747,-21.54919151992751)" style="fill-opacity: 0; display: none;">heap</text><text transform="translate(366.2703605391059,106.81745261855404)" style="fill-opacity: 0; display: none;">Colors</text><text transform="translate(186.81143626535177,32.39570532522902)" style="fill-opacity: 0; display: none;">math</text><text transform="translate(188.2149474732036,94.15005231586946)" style="fill-opacity: 0; display: none;">Arrays</text><text transform="translate(398.85848634705917,65.93877964074528)" style="fill-opacity: 0; display: none;">Dates</text><text transform="translate(417.0850935174869,21.6995842935955)" style="fill-opacity: 0; display: none;">Sort</text><text transform="translate(287.6257892078651,-59.86559468815595)" style="fill-opacity: 0; display: none;">Stats</text><text transform="translate(330.416170915742,-65.28763075217319)" style="fill-opacity: 0; display: none;">Property</text><text transform="translate(265.95237900570964,145.00985007283725)" style="fill-opacity: 0; display: none;">Filter</text><text transform="translate(342.8259493943308,137.62079521624386)" style="fill-opacity: 0; display: none;">Orientation</text><text transform="translate(287.0582534322477,153.84511668932456)" style="fill-opacity: 0; display: none;">IValueProxy</text><text transform="translate(327.46726136875037,146.54351725471338)" style="fill-opacity: 0; display: none;">IPredicate</text><text transform="translate(398.21357089249864,96.9327537276701)" style="fill-opacity: 0; display: none;">IEvaluable</text><text transform="translate(140.21635315645017,291.2926421085829)" style="fill-opacity: 0; display: none;">interpolate</text><text transform="translate(236.37173802685447,291.2926421085829)" style="fill-opacity: 0; display: none;">Transitioner</text><text transform="translate(205.55706209245068,357.9115471040139)" style="fill-opacity: 0; display: none;">Easing</text><text transform="translate(203.6962774082326,235.7800305087661)" style="fill-opacity: 0; display: none;">Transition</text><text transform="translate(160.9048442785343,214.49989656770165)" style="fill-opacity: 0; display: none;">Tween</text><text transform="translate(150.344466866844,369.8960977288459)" style="fill-opacity: 0; display: none;">FunctionSequence</text><text transform="translate(250.75293344737614,234.16399795698837)" style="fill-opacity: 0; display: none;">Scheduler</text><text transform="translate(260.04352926561586,345.1259196745445)" style="fill-opacity: 0; display: none;">Sequence</text><text transform="translate(119.38713418333126,216.0377230401048)" style="fill-opacity: 0; display: none;">Parallel</text><text transform="translate(121.96845692948037,356.8480682853039)" style="fill-opacity: 0; display: none;">TransitionEvent</text><text transform="translate(189.75111206645016,202.57951881488813)" style="fill-opacity: 0; display: none;">ISchedulable</text><text transform="translate(173.69230731396317,385.4430426276313)" style="fill-opacity: 0; display: none;">Pause</text><text transform="translate(151.30240970058074,-195.0385100797323)" style="fill-opacity: 0; display: none;">methods</text><text transform="translate(232.97633265694182,-195.0385100797323)" style="fill-opacity: 0; display: none;">Query</text><text transform="translate(205.2770974189773,-151.05384419044114)" style="fill-opacity: 0; display: none;">Expression</text><text transform="translate(205.26647712610918,-238.9583795409628)" style="fill-opacity: 0; display: none;">Comparison</text><text transform="translate(173.0988640826373,-259.1683790784847)" style="fill-opacity: 0; display: none;">DateUtil</text><text transform="translate(173.03583582429894,-130.9107713942983)" style="fill-opacity: 0; display: none;">StringUtil</text><text transform="translate(242.44121481461275,-243.69833039571614)" style="fill-opacity: 0; display: none;">Arithmetic</text><text transform="translate(242.2387988153174,-146.6465030424343)" style="fill-opacity: 0; display: none;">Match</text><text transform="translate(137.9448233351113,-260.45460259809505)" style="fill-opacity: 0; display: none;">CompositeExpression</text><text transform="translate(138.02958925442508,-129.737182069019)" style="fill-opacity: 0; display: none;">ExpressionIterator</text><text transform="translate(203.4418919482109,-274.96673077317956)" style="fill-opacity: 0; display: none;">Fn</text><text transform="translate(202.81604316811487,-115.852366158907)" style="fill-opacity: 0; display: none;">BinaryExpression</text><text transform="translate(233.0625901226974,-115.7996985931568)" style="fill-opacity: 0; display: none;">If</text><text transform="translate(232.56367213755286,-272.6935713027091)" style="fill-opacity: 0; display: none;">IsA</text><text transform="translate(265.8593563361346,-164.89789839888644)" style="fill-opacity: 0; display: none;">Variance</text><text transform="translate(264.9899719217458,-224.92494578603464)" style="fill-opacity: 0; display: none;">AggregateExpression</text><text transform="translate(114.39903765880776,-146.0017752802591)" style="fill-opacity: 0; display: none;">Range</text><text transform="translate(114.472315834714,-243.9660757329103)" style="fill-opacity: 0; display: none;">Not</text><text transform="translate(155.40513953621283,-108.59858492416332)" style="fill-opacity: 0; display: none;">Literal</text><text transform="translate(155.54186176203305,-281.1296619695976)" style="fill-opacity: 0; display: none;">Variable</text><text transform="translate(180.5302087892824,-103.92760567333985)" style="fill-opacity: 0; display: none;">Xor</text><text transform="translate(180.12194675710558,-285.9957360666154)" style="fill-opacity: 0; display: none;">And</text><text transform="translate(101.71685715119368,-162.90917932352488)" style="fill-opacity: 0; display: none;">Or</text><text transform="translate(101.97555019013471,-227.2789814981377)" style="fill-opacity: 0; display: none;">Distinct</text><text transform="translate(272.7131713673276,-205.53718809791104)" style="fill-opacity: 0; display: none;">Average</text><text transform="translate(272.67657555302435,-185.2546673242276)" style="fill-opacity: 0; display: none;">Maximum</text><text transform="translate(94.86960430356038,-210.58567781943304)" style="fill-opacity: 0; display: none;">Minimum</text><text transform="translate(95.05831648451175,-179.6991179726819)" style="fill-opacity: 0; display: none;">Sum</text><text transform="translate(87.06366052388844,-194.96105761812282)" style="fill-opacity: 0; display: none;">Count</text><text transform="translate(-25.858898223694588,-336.6083870496892)" style="fill-opacity: 0; display: none;">graph</text><text transform="translate(82.20450958202277,-336.6083870496892)" style="fill-opacity: 0; display: none;">cluster</text><text transform="translate(42.24323961950913,-278.7009179911052)" style="fill-opacity: 0; display: none;">optimization</text><text transform="translate(7.254625247273705,359.72928184996834)" style="fill-opacity: 0; display: none;">TimeScale</text><text transform="translate(47.887776973745986,359.72928184996834)" style="fill-opacity: 0; display: none;">QuantitativeScale</text><text transform="translate(29.25820804043916,392.57013745695895)" style="fill-opacity: 0; display: none;">Scale</text><text transform="translate(29.213531213585657,328.0966764618461)" style="fill-opacity: 0; display: none;">OrdinalScale</text><text transform="translate(-3.8024365292680633,324.2778275416709)" style="fill-opacity: 0; display: none;">LogScale</text><text transform="translate(-3.2198363671789254,393.5105701202632)" style="fill-opacity: 0; display: none;">QuantileScale</text><text transform="translate(59.75680447025324,329.26842523643666)" style="fill-opacity: 0; display: none;">IScaleMap</text><text transform="translate(59.83356368914535,389.26101174156605)" style="fill-opacity: 0; display: none;">ScaleType</text><text transform="translate(-22.325390549635607,375.30454639116556)" style="fill-opacity: 0; display: none;">RootScale</text><text transform="translate(-20.966877923887484,344.7204738917571)" style="fill-opacity: 0; display: none;">LinearScale</text><text transform="translate(342.30248295743525,-169.6180545735585)" style="fill-opacity: 0; display: none;">converters</text><text transform="translate(406.7465099120602,-169.6180545735585)" style="fill-opacity: 0; display: none;">DataSource</text><text transform="translate(398.4463060906139,-138.0224030907389)" style="fill-opacity: 0; display: none;">DataUtil</text><text transform="translate(397.02087723722536,-197.75989318937715)" style="fill-opacity: 0; display: none;">DataSchema</text><text transform="translate(379.8558872643277,-216.84259308229124)" style="fill-opacity: 0; display: none;">DataField</text><text transform="translate(377.23948256709156,-125.02492911938297)" style="fill-opacity: 0; display: none;">DataTable</text><text transform="translate(360.73821642831126,-222.19726850032862)" style="fill-opacity: 0; display: none;">DataSet</text><text transform="translate(-119.83684334062625,397.42880404852065)" style="fill-opacity: 0; display: none;">NBodyForce</text><text transform="translate(-64.50543540585858,397.42880404852065)" style="fill-opacity: 0; display: none;">Simulation</text><text transform="translate(-91.65832680201946,430.10096978658146)" style="fill-opacity: 0; display: none;">Particle</text><text transform="translate(-91.67729269303781,366.8606492905527)" style="fill-opacity: 0; display: none;">Spring</text><text transform="translate(-115.52450891640213,357.67401382863164)" style="fill-opacity: 0; display: none;">SpringForce</text><text transform="translate(-68.42854887022175,359.4643000573354)" style="fill-opacity: 0; display: none;">GravityForce</text><text transform="translate(-116.176002159703,435.12833743487545)" style="fill-opacity: 0; display: none;">DragForce</text><text transform="translate(-70.54580094581408,430.17533642258377)" style="fill-opacity: 0; display: none;">IForce</text><text transform="translate(-172.89673679817287,-320.4454428589063)" style="fill-opacity: 0; display: none;">TextSprite</text><text transform="translate(-119.66473684695936,-320.4454428589063)" style="fill-opacity: 0; display: none;">DirtySprite</text><text transform="translate(-144.92704478727836,-285.92250203222443)" style="fill-opacity: 0; display: none;">RectSprite</text><text transform="translate(-145.07721608796584,-348.6191185124615)" style="fill-opacity: 0; display: none;">LineSprite</text><text transform="translate(304.8309348504738,207.57137987903297)" style="fill-opacity: 0; display: none;">FlareVis</text><text transform="translate(-342.1928407648743,52.597978499092406)" style="fill-opacity: 0; display: none;">layout</text><text transform="translate(-182.47802527019738,52.597978499092406)" style="fill-opacity: 0; display: none;">label</text><text transform="translate(-211.176109476571,144.38600833365092)" style="fill-opacity: 0; display: none;">encoder</text><text transform="translate(-212.75609171269102,-34.503991970616944)" style="fill-opacity: 0; display: none;">distortion</text><text transform="translate(-279.95290040807737,-86.7571022457029)" style="fill-opacity: 0; display: none;">filter</text><text transform="translate(-275.84646027464413,166.6401237093107)" style="fill-opacity: 0; display: none;">OperatorList</text><text transform="translate(-338.2216673270597,-77.26993852292775)" style="fill-opacity: 0; display: none;">OperatorSequence</text><text transform="translate(-309.63809049734704,174.63197225165868)" style="fill-opacity: 0; display: none;">OperatorSwitch</text><text transform="translate(-161.56602555585425,-6.051336275487834)" style="fill-opacity: 0; display: none;">Operator</text><text transform="translate(-160.7813185176728,109.59196274273744)" style="fill-opacity: 0; display: none;">SortOperator</text><text transform="translate(-334.83420793433316,174.78667398509845)" style="fill-opacity: 0; display: none;">IOperator</text><text transform="translate(-8.146849765614519,38.479073801369644)" style="fill-opacity: 0; display: none;">Data</text><text transform="translate(68.4429156543426,38.479073801369644)" style="fill-opacity: 0; display: none;">DataList</text><text transform="translate(30.83473789254128,103.96726259664032)" style="fill-opacity: 0; display: none;">NodeSprite</text><text transform="translate(30.75686195273209,-16.814731301672683)" style="fill-opacity: 0; display: none;">ScaleBinding</text><text transform="translate(-25.315429709060513,-25.713212092044877)" style="fill-opacity: 0; display: none;">DataSprite</text><text transform="translate(86.50408735297358,-24.18338569686088)" style="fill-opacity: 0; display: none;">TreeBuilder</text><text transform="translate(-43.75751819418643,105.25097071888635)" style="fill-opacity: 0; display: none;">render</text><text transform="translate(91.13018153805267,95.40298664026369)" style="fill-opacity: 0; display: none;">Tree</text><text transform="translate(-53.79006990701898,7.939780205372955)" style="fill-opacity: 0; display: none;">EdgeSprite</text><text transform="translate(-120.76665634747982,213.68137520188728)" style="fill-opacity: 0; display: none;">TooltipControl</text><text transform="translate(-71.12950046564768,213.68137520188728)" style="fill-opacity: 0; display: none;">SelectionControl</text><text transform="translate(-95.19941452302896,251.15520699345385)" style="fill-opacity: 0; display: none;">PanZoomControl</text><text transform="translate(-95.20935599110692,176.92548824766595)" style="fill-opacity: 0; display: none;">HoverControl</text><text transform="translate(-133.41859609700415,171.19216639281964)" style="fill-opacity: 0; display: none;">ControlList</text><text transform="translate(-132.58632873434087,254.6607341227055)" style="fill-opacity: 0; display: none;">ClickControl</text><text transform="translate(-60.52807874372131,175.54993185304045)" style="fill-opacity: 0; display: none;">ExpandControl</text><text transform="translate(-60.34948184129114,251.2893391882142)" style="fill-opacity: 0; display: none;">DragControl</text><text transform="translate(-38.84794088313529,194.0918217488682)" style="fill-opacity: 0; display: none;">AnchorControl</text><text transform="translate(-41.92293990467764,233.5036091619522)" style="fill-opacity: 0; display: none;">Control</text><text transform="translate(-147.89598981317016,233.73908673828245)" style="fill-opacity: 0; display: none;">IControl</text><text transform="translate(-125.69507460575646,-114.55496645880483)" style="fill-opacity: 0; display: none;">Legend</text><text transform="translate(-58.73075749492538,-114.55496645880483)" style="fill-opacity: 0; display: none;">LegendRange</text><text transform="translate(-83.67837249043636,-74.67404312052007)" style="fill-opacity: 0; display: none;">LegendItem</text><text transform="translate(-236.24173195948742,-187.53929884899688)" style="fill-opacity: 0; display: none;">Axis</text><text transform="translate(-171.45172886381707,-187.53929884899688)" style="fill-opacity: 0; display: none;">CartesianAxes</text><text transform="translate(-190.8602846554491,-160.42388301944624)" style="fill-opacity: 0; display: none;">Axes</text><text transform="translate(-191.6879672875686,-210.49052743260677)" style="fill-opacity: 0; display: none;">AxisGridLine</text><text transform="translate(-201.1457466204964,-223.20224714807654)" style="fill-opacity: 0; display: none;">AxisLabel</text><text transform="translate(-8.46743183060599,-118.3646407580371)" style="fill-opacity: 0; display: none;">DataEvent</text><text transform="translate(17.976177414954698,-118.3646407580371)" style="fill-opacity: 0; display: none;">SelectionEvent</text><text transform="translate(5.93300053532564,-96.84595864859836)" style="fill-opacity: 0; display: none;">TooltipEvent</text><text transform="translate(5.838014192826868,-137.45502313040427)" style="fill-opacity: 0; display: none;">VisualizationEvent</text><text transform="translate(220.50435685680822,-30.130888399642394)" style="fill-opacity: 0; display: none;">ColorPalette</text><text transform="translate(256.3770167079061,-30.130888399642394)" style="fill-opacity: 0; display: none;">SizePalette</text><text transform="translate(245.64210593836688,-5.455601667571804)" style="fill-opacity: 0; display: none;">ShapePalette</text><text transform="translate(245.01914901394744,-51.52470254612503)" style="fill-opacity: 0; display: none;">Palette</text><text transform="translate(361.49130279005453,-21.54919151992751)" style="fill-opacity: 0; display: none;">FibonacciHeap</text><text transform="translate(398.45056925867425,-21.54919151992751)" style="fill-opacity: 0; display: none;">HeapNode</text><text transform="translate(170.87187515902255,24.605077720753204)" style="fill-opacity: 0; display: none;">SparseMatrix</text><text transform="translate(203.25933826916238,24.605077720753204)" style="fill-opacity: 0; display: none;">DenseMatrix</text><text transform="translate(187.50865126141585,51.41642844107368)" style="fill-opacity: 0; display: none;">IMatrix</text><text transform="translate(122.54881172705682,287.9939727716764)" style="fill-opacity: 0; display: none;">Interpolator</text><text transform="translate(161.75180045426094,287.9939727716764)" style="fill-opacity: 0; display: none;">MatrixInterpolator</text><text transform="translate(152.27143452988687,312.8795620366241)" style="fill-opacity: 0; display: none;">ColorInterpolator</text><text transform="translate(152.2669773970422,263.125492449741)" style="fill-opacity: 0; display: none;">RectangleInterpolator</text><text transform="translate(129.77549303678308,250.09750803580974)" style="fill-opacity: 0; display: none;">ArrayInterpolator</text><text transform="translate(130.24092854073814,324.84035054598786)" style="fill-opacity: 0; display: none;">PointInterpolator</text><text transform="translate(176.77446812933078,267.56417601675594)" style="fill-opacity: 0; display: none;">ObjectInterpolator</text><text transform="translate(175.87336783764215,308.050140112103)" style="fill-opacity: 0; display: none;">NumberInterpolator</text><text transform="translate(107.55452973078478,321.42448971920993)" style="fill-opacity: 0; display: none;">DateInterpolator</text><text transform="translate(142.86038395577646,-194.0506664826077)" style="fill-opacity: 0; display: none;">range</text><text transform="translate(159.8455399570983,-194.0506664826077)" style="fill-opacity: 0; display: none;">iff</text><text transform="translate(151.46186587672835,-180.11877282682636)" style="fill-opacity: 0; display: none;">gte</text><text transform="translate(151.4616567841554,-207.94585911368125)" style="fill-opacity: 0; display: none;">lte</text><text transform="translate(135.9832062373765,-208.78209171754594)" style="fill-opacity: 0; display: none;">gt</text><text transform="translate(135.94929689283285,-179.33511897558498)" style="fill-opacity: 0; display: none;">mul</text><text transform="translate(166.93546104475146,-208.53707899123623)" style="fill-opacity: 0; display: none;">sub</text><text transform="translate(166.96375041656742,-179.58406058171676)" style="fill-opacity: 0; display: none;">neq</text><text transform="translate(126.81020268632818,-196.4310105088072)" style="fill-opacity: 0; display: none;">lt</text><text transform="translate(120.8615484125693,-182.2889160443697)" style="fill-opacity: 0; display: none;">div</text><text transform="translate(175.82134254896778,-196.016989166839)" style="fill-opacity: 0; display: none;">eq</text><text transform="translate(182.1064445803378,-182.05044224783742)" style="fill-opacity: 0; display: none;">add</text><text transform="translate(144.35641183365567,-221.6505518717348)" style="fill-opacity: 0; display: none;">mod</text><text transform="translate(144.22448340969663,-167.2906761099044)" style="fill-opacity: 0; display: none;">isa</text><text transform="translate(158.86824938201875,-220.69541017290996)" style="fill-opacity: 0; display: none;">fn</text><text transform="translate(158.92846143111132,-167.9770330057864)" style="fill-opacity: 0; display: none;">not</text><text transform="translate(152.4898298810795,-157.02444509552765)" style="fill-opacity: 0; display: none;">stddev</text><text transform="translate(122.0796890008309,-209.49027848349118)" style="fill-opacity: 0; display: none;">xor</text><text transform="translate(180.70396432500527,-208.86053028477494)" style="fill-opacity: 0; display: none;">variance</text><text transform="translate(171.3220447910389,-166.56279900295786)" style="fill-opacity: 0; display: none;">and</text><text transform="translate(131.35487709564126,-166.42627529933995)" style="fill-opacity: 0; display: none;">or</text><text transform="translate(171.630562769305,-221.26763273263185)" style="fill-opacity: 0; display: none;">orderby</text><text transform="translate(130.83891629796568,-221.3550694280882)" style="fill-opacity: 0; display: none;">update</text><text transform="translate(119.79583498387538,-168.84883518771804)" style="fill-opacity: 0; display: none;">where</text><text transform="translate(182.97816566164957,-168.62979091971093)" style="fill-opacity: 0; display: none;">select</text><text transform="translate(152.98872754958202,-231.9098690498478)" style="fill-opacity: 0; display: none;">distinct</text><text transform="translate(119.24055083764986,-221.0861145642766)" style="fill-opacity: 0; display: none;">average</text><text transform="translate(183.16665400191894,-220.37428358895062)" style="fill-opacity: 0; display: none;">max</text><text transform="translate(113.74363581661203,-193.5950265936981)" style="fill-opacity: 0; display: none;">min</text><text transform="translate(188.91431002811447,-193.50641315727984)" style="fill-opacity: 0; display: none;">sum</text><text transform="translate(191.5921423697485,-204.50374381629013)" style="fill-opacity: 0; display: none;">count</text><text transform="translate(111.39364019501113,-204.58560746617974)" style="fill-opacity: 0; display: none;">_</text><text transform="translate(-36.17800964266583,-337.20750297794797)" style="fill-opacity: 0; display: none;">MaxFlowMinCut</text><text transform="translate(9.536014861309388,-337.20750297794797)" style="fill-opacity: 0; display: none;">ShortestPaths</text><text transform="translate(-10.41047757165317,-299.8263498992341)" style="fill-opacity: 0; display: none;">LinkDistance</text><text transform="translate(-10.69124966149017,-369.53768910914306)" style="fill-opacity: 0; display: none;">BetweennessCentrality</text><text transform="translate(-43.04763412509713,-377.53404131138905)" style="fill-opacity: 0; display: none;">SpanningTree</text><text transform="translate(64.74391770151607,-344.6768541037643)" style="fill-opacity: 0; display: none;">HierarchicalCluster</text><text transform="translate(105.05295690620218,-344.6768541037643)" style="fill-opacity: 0; display: none;">AgglomerativeCluster</text><text transform="translate(89.55263497816603,-313.241743103059)" style="fill-opacity: 0; display: none;">CommunityStructure</text><text transform="translate(88.43943402910512,-364.76533058217444)" style="fill-opacity: 0; display: none;">MergeEdge</text><text transform="translate(42.24323961950913,-278.7009179911052)" style="fill-opacity: 0; display: none;">AspectRatioBanker</text><text transform="translate(323.9234993132947,-169.6180545735585)" style="fill-opacity: 0; display: none;">GraphMLConverter</text><text transform="translate(369.39721135124466,-169.6180545735585)" style="fill-opacity: 0; display: none;">DelimitedTextConverter</text><text transform="translate(353.6218038452709,-141.81938787513593)" style="fill-opacity: 0; display: none;">JSONConverter</text><text transform="translate(353.0793289118788,-193.75176710715908)" style="fill-opacity: 0; display: none;">IDataConverter</text><text transform="translate(336.2967526989944,-202.7861956269921)" style="fill-opacity: 0; display: none;">Converters</text><text transform="translate(-368.4690898052159,44.87546987575119)" style="fill-opacity: 0; display: none;">NodeLinkTreeLayout</text><text transform="translate(-307.3579219648627,44.87546987575119)" style="fill-opacity: 0; display: none;">RadialTreeLayout</text><text transform="translate(-337.31516893864017,96.97548099821432)" style="fill-opacity: 0; display: none;">CirclePackingLayout</text><text transform="translate(-337.3487937563638,-3.2485547045628325)" style="fill-opacity: 0; display: none;">CircleLayout</text><text transform="translate(-389.85640674202205,-8.109971326048623)" style="fill-opacity: 0; display: none;">TreeMapLayout</text><text transform="translate(-284.8369409547355,-6.874931224601279)" style="fill-opacity: 0; display: none;">StackedAreaLayout</text><text transform="translate(-392.34146604167455,95.59431336223253)" style="fill-opacity: 0; display: none;">ForceDirectedLayout</text><text transform="translate(-283.12358996621595,93.89849632760085)" style="fill-opacity: 0; display: none;">Layout</text><text transform="translate(-420.01621430063284,30.44640228473593)" style="fill-opacity: 0; display: none;">AxisLayout</text><text transform="translate(-259.5596314134177,31.152298223613226)" style="fill-opacity: 0; display: none;">IcicleTreeLayout</text><text transform="translate(-429.8744326862794,71.4027718394187)" style="fill-opacity: 0; display: none;">DendrogramLayout</text><text transform="translate(-251.39681871233606,66.92148085759023)" style="fill-opacity: 0; display: none;">BundledEdgeRouter</text><text transform="translate(-360.68350005267627,-38.69400828710919)" style="fill-opacity: 0; display: none;">IndentedTreeLayout</text><text transform="translate(-313.0719770326925,-36.74282807525306)" style="fill-opacity: 0; display: none;">PieLayout</text><text transform="translate(-368.51087602065365,120.11459448817939)" style="fill-opacity: 0; display: none;">RandomLayout</text><text transform="translate(-199.95417804160596,48.15604905015152)" style="fill-opacity: 0; display: none;">Labeler</text><text transform="translate(-155.07994127801751,48.15604905015152)" style="fill-opacity: 0; display: none;">RadialLabeler</text><text transform="translate(-169.17709443857453,78.68348841563022)" style="fill-opacity: 0; display: none;">StackedAreaLabeler</text><text transform="translate(-219.48637470979315,143.46251044501867)" style="fill-opacity: 0; display: none;">PropertyEncoder</text><text transform="translate(-183.5127859832124,143.46251044501867)" style="fill-opacity: 0; display: none;">Encoder</text><text transform="translate(-201.3497099451118,172.29585103656984)" style="fill-opacity: 0; display: none;">ColorEncoder</text><text transform="translate(-201.36533459003792,118.9041858768883)" style="fill-opacity: 0; display: none;">SizeEncoder</text><text transform="translate(-225.33228203181255,113.95035347293424)" style="fill-opacity: 0; display: none;">ShapeEncoder</text><text transform="translate(-231.3895386522445,-40.6586740820525)" style="fill-opacity: 0; display: none;">Distortion</text><text transform="translate(-190.67450684740965,-40.6586740820525)" style="fill-opacity: 0; display: none;">BifocalDistortion</text><text transform="translate(-208.0371208535921,-9.918665900194902)" style="fill-opacity: 0; display: none;">FisheyeDistortion</text><text transform="translate(-296.56735238037896,-93.9663996963108)" style="fill-opacity: 0; display: none;">FisheyeTreeFilter</text><text transform="translate(-259.6994249268093,-93.9663996963108)" style="fill-opacity: 0; display: none;">VisibilityFilter</text><text transform="translate(-274.97309546990806,-65.04690291339313)" style="fill-opacity: 0; display: none;">GraphDistanceFilter</text><text transform="translate(-57.41586593413272,105.25097071888635)" style="fill-opacity: 0; display: none;">EdgeRenderer</text><text transform="translate(-23.0093438812016,105.25097071888635)" style="fill-opacity: 0; display: none;">ShapeRenderer</text><text transform="translate(-34.97928961558973,123.53301611324234)" style="fill-opacity: 0; display: none;">ArrowType</text><text transform="translate(-35.388828564431336,89.71550910441081)" style="fill-opacity: 0; display: none;">IRenderer</text></g></svg>